<svg width="32" height="34" viewBox="0 0 32 34" fill="none" xmlns="http://www.w3.org/2000/svg">
<path d="M12.6677 16.588C12.6677 14.6794 14.1596 13.1319 16.0005 13.1319C17.8414 13.1319 19.3341 14.6794 19.3341 16.588C19.3341 18.4965 17.8414 20.0441 16.0005 20.0441C14.1596 20.0441 12.6677 18.4965 12.6677 16.588ZM10.8656 16.588C10.8656 19.5282 13.1645 21.9116 16.0005 21.9116C18.8365 21.9116 21.1354 19.5282 21.1354 16.588C21.1354 13.6477 18.8365 11.2644 16.0005 11.2644C13.1645 11.2644 10.8656 13.6477 10.8656 16.588ZM20.1386 11.0533C20.1386 11.2994 20.2088 11.5399 20.3406 11.7446C20.4724 11.9492 20.6597 12.1087 20.879 12.203C21.0982 12.2973 21.3395 12.322 21.5723 12.2741C21.8051 12.2262 22.0189 12.1078 22.1868 11.9339C22.3547 11.7599 22.4691 11.5383 22.5155 11.297C22.5619 11.0557 22.5382 10.8055 22.4475 10.5782C22.3567 10.3508 22.203 10.1564 22.0057 10.0196C21.8084 9.88285 21.5765 9.80979 21.3391 9.80969H21.3386C21.0205 9.80984 20.7155 9.9409 20.4905 10.1741C20.2655 10.4072 20.1389 10.7235 20.1386 11.0533ZM11.9605 25.0269C10.9855 24.9808 10.4556 24.8125 10.1034 24.6702C9.63657 24.4818 9.30345 24.2574 8.95321 23.8947C8.60297 23.5321 8.38617 23.1871 8.20521 22.7031C8.06793 22.3381 7.90553 21.7886 7.86121 20.7778C7.81273 19.6849 7.80305 19.3567 7.80305 16.5881C7.80305 13.8194 7.81353 13.4921 7.86121 12.3983C7.90561 11.3875 8.06921 10.8391 8.20521 10.473C8.38697 9.98901 8.60345 9.64364 8.95321 9.28053C9.30297 8.91742 9.63577 8.69265 10.1034 8.50504C10.4554 8.36272 10.9855 8.19435 11.9605 8.1484C13.0146 8.09814 13.3312 8.0881 16.0005 8.0881C18.6698 8.0881 18.9867 8.09897 20.0417 8.1484C21.0166 8.19443 21.5457 8.36405 21.8987 8.50504C22.3656 8.69265 22.6987 8.91792 23.049 9.28053C23.3992 9.64315 23.6152 9.98901 23.797 10.473C23.9342 10.838 24.0966 11.3875 24.141 12.3983C24.1894 13.4921 24.1991 13.8194 24.1991 16.5881C24.1991 19.3567 24.1894 19.684 24.141 20.7778C24.0966 21.7886 23.9334 22.338 23.797 22.7031C23.6152 23.1871 23.3987 23.5325 23.049 23.8947C22.6992 24.257 22.3656 24.4818 21.8987 24.6702C21.5467 24.8126 21.0166 24.9809 20.0417 25.0269C18.9876 25.0771 18.671 25.0872 16.0005 25.0872C13.33 25.0872 13.0142 25.0771 11.9605 25.0269ZM11.8777 6.28324C10.8131 6.33351 10.0857 6.50851 9.45041 6.76479C8.79249 7.02946 8.23553 7.38452 7.67897 7.96062C7.12241 8.53673 6.78081 9.11507 6.52553 9.79717C6.27833 10.4562 6.10953 11.21 6.06105 12.3137C6.01177 13.4191 6.00049 13.7725 6.00049 16.588C6.00049 19.4035 6.01177 19.7569 6.06105 20.8623C6.10953 21.9661 6.27833 22.7197 6.52553 23.3788C6.78081 24.0605 7.12249 24.6395 7.67897 25.2153C8.23545 25.7912 8.79249 26.1457 9.45041 26.4111C10.0869 26.6674 10.8131 26.8424 11.8777 26.8927C12.9445 26.943 13.2848 26.9555 16.0005 26.9555C18.7162 26.9555 19.057 26.9438 20.1233 26.8927C21.1879 26.8424 21.9149 26.6674 22.5506 26.4111C23.2081 26.1457 23.7654 25.7914 24.322 25.2153C24.8786 24.6392 25.2194 24.0605 25.4754 23.3788C25.7226 22.7197 25.8922 21.966 25.9399 20.8623C25.9884 19.756 25.9997 19.4035 25.9997 16.588C25.9997 13.7725 25.9884 13.4191 25.9399 12.3137C25.8914 11.2099 25.7226 10.4558 25.4754 9.79717C25.2194 9.11548 24.8777 8.53764 24.322 7.96062C23.7663 7.38361 23.2081 7.02946 22.5514 6.76479C21.9149 6.50851 21.1878 6.33268 20.1241 6.28324C19.0578 6.23298 18.717 6.22046 16.0013 6.22046C13.2856 6.22046 12.9445 6.23215 11.8777 6.28324Z" fill="#121212" fill-opacity="0.6"/>
</svg>
